<?xml version="1.0" encoding="UTF-8"?>
<svg xmlns="http://www.w3.org/2000/svg" xmlns:xlink="http://www.w3.org/1999/xlink" id="Gradient" viewBox="0 0 512 512" width="512" height="512"><defs><linearGradient id="linear-gradient" x1="256" y1="448" x2="256" y2="64" gradientUnits="userSpaceOnUse"><stop offset="0" stop-color="#12c0e7"/><stop offset="0.5" stop-color="#c271eb"/><stop offset="1" stop-color="#f44f5a"/></linearGradient></defs><path d="M407.438,121.344C352.773,84.9,283,64,216,64c-50.044,0-101.11,18.53-140.1,50.84-18.14,15.03-33.182,32.709-43.5,51.125C21.669,185.109,16,205.177,16,224c0,64.132,30.169,98.176,40,107.567V440a8,8,0,0,0,8,8H376a8,8,0,0,0,8-8V369.812a123.633,123.633,0,0,0,19.092,1.5c16.494,0,37.32-3.44,55.293-17C483.344,335.488,496,302.41,496,256,496,207.945,463.72,158.865,407.438,121.344ZM368,336v16H72V336ZM72,432V368H368v64Zm376.839-90.526c-22.688,17.179-52.449,14.29-64.839,12.08V328a8,8,0,0,0-8-8H334.116c0-.02.007-.036.012-.057,1.041-4.013,6.81-15.265,37.841-33,24-13.714,41.175-26.39,51.052-37.678C430.833,240.339,432,234.616,432,232a8,8,0,0,0-15.954-.861c-.434,1.34-6,15.624-52.015,41.915-29.022,16.584-44.052,31.54-45.952,45.723-.056.419-.088.821-.119,1.223h-54.7c-1.764-24.507-2.7-108.627,61.326-153.446a8,8,0,1,0-9.176-13.108c-34.5,24.149-57.078,62.256-65.3,110.2A242.662,242.662,0,0,0,247.2,320H189.14c-8.323-19.165-37.745-96.67,1.516-155.562a8,8,0,0,0-13.312-8.876c-20.8,31.2-27.444,71.612-19.215,116.869A253.418,253.418,0,0,0,171.791,320H134.5c-11.663-46.964-57.921-62.906-59.973-63.59a8,8,0,0,0-5.06,15.18c.4.133,37.176,12.792,48.409,48.41h-50.8a100.239,100.239,0,0,1-16.594-21.762C35.207,271.859,32,243.307,32,224c0-32.567,20.226-68.77,54.1-96.84C122.276,97.189,169.621,80,216,80c63.918,0,130.46,19.922,182.562,54.656C450.317,169.159,480,213.388,480,256,480,297.06,469.516,325.816,448.839,341.474Z" style="fill:url(#linear-gradient)"/></svg>
